<svg version="1.1" id="Layer_1" xmlns="http://www.w3.org/2000/svg" xmlns:xlink="http://www.w3.org/1999/xlink" x="0px" y="0px"
	 width="100%" viewBox="0 0 512 512" enable-background="new 0 0 512 512" xml:space="preserve">
<path fill="#000000" opacity="1.000000" stroke="none" 
	d="
M218.463181,513.000000 
	C215.022461,511.643158 211.881760,510.558044 209.094437,508.884430 
	C193.564346,499.559479 189.176834,478.839386 201.854416,463.141632 
	C204.063004,460.406860 205.841721,457.487518 206.924377,454.012848 
	C203.689529,452.213379 200.480042,451.289764 196.887222,451.325287 
	C186.389847,451.429077 175.883377,451.620514 165.393799,451.316956 
	C135.582596,450.454132 106.253654,446.747345 78.370010,435.340210 
	C73.461578,433.332153 68.564354,431.244537 63.848972,428.828644 
	C56.264023,424.942627 52.773506,415.922852 55.069157,406.985748 
	C57.013908,399.414764 63.573509,394.617676 72.222694,394.664642 
	C92.777763,394.776306 112.936378,392.582916 132.156006,384.701660 
	C139.096817,381.855530 145.708115,378.401154 151.822784,374.030609 
	C154.380005,372.202789 156.048798,370.129395 155.717697,366.577362 
	C155.018387,359.075287 156.455276,351.705414 158.050491,343.931763 
	C151.261414,340.820190 143.985519,339.133514 137.388931,335.669189 
	C109.293503,320.914185 92.534752,297.773865 86.953209,266.826904 
	C84.816772,254.981369 85.125252,242.714203 83.499733,230.750565 
	C82.355057,222.325882 82.187538,213.816589 82.052727,205.469818 
	C81.883453,194.989166 82.691734,184.285736 85.069870,173.885483 
	C85.802673,170.680725 86.336098,167.430374 87.092316,163.521072 
	C78.901131,163.522461 71.210869,162.761444 63.621464,161.256897 
	C60.554485,160.648895 57.347363,160.217789 55.410587,157.201294 
	C53.901318,154.850616 52.913059,152.352249 54.201363,149.690796 
	C55.565460,146.872757 57.716366,144.920105 61.120094,144.674454 
	C64.859703,144.404587 68.358017,145.638657 71.964661,146.178070 
	C77.608383,147.022141 83.253014,146.830490 88.901520,146.383270 
	C92.163857,146.125000 94.123169,144.538818 95.446037,141.296906 
	C105.242516,117.289047 119.945679,96.675102 139.599747,79.787254 
	C144.290436,75.756760 145.473648,72.075439 143.933792,66.073090 
	C136.445755,36.884964 109.341759,16.333666 79.141319,17.521393 
	C46.543591,18.803400 20.974508,42.725471 17.165829,74.138229 
	C14.678247,94.654999 20.811277,112.202095 34.802505,127.192734 
	C37.830364,130.436874 40.707027,133.711319 38.280140,138.662567 
	C36.070614,143.170380 31.386402,144.691940 27.058636,142.108734 
	C20.375746,138.119797 16.419359,131.563339 12.541460,125.290054 
	C6.769204,115.952271 2.492564,105.833771 1.138749,94.353043 
	C1.000000,84.645775 1.000000,75.291542 1.260199,65.228493 
	C1.886731,63.616909 2.363893,62.742477 2.602965,61.807190 
	C6.992839,44.633163 16.345995,30.558029 29.811741,19.279554 
	C49.351421,2.913743 72.303146,-1.513041 96.699890,2.815983 
	C118.444389,6.674384 135.872803,18.146490 148.486282,36.743053 
	C153.855896,44.659679 157.006729,53.420773 160.198166,62.659359 
	C162.340927,61.649891 164.205734,60.957756 165.882370,59.951958 
	C179.079910,52.034859 193.278061,46.554474 208.102386,42.645531 
	C229.220703,37.076965 251.037766,36.997971 272.567932,34.718094 
	C285.739288,33.323349 299.026367,32.982254 312.178131,31.451618 
	C328.402527,29.563385 344.543640,29.111490 360.838623,30.526787 
	C380.284607,32.215767 398.633453,37.690563 415.989838,46.159409 
	C435.972351,55.909657 453.454681,69.047188 468.301392,85.933258 
	C481.199402,100.602982 491.247101,116.733253 498.571014,134.719208 
	C507.056915,155.558716 510.253601,177.419785 511.411835,199.709885 
	C511.677399,204.820297 512.456970,209.904007 513.000000,215.000000 
	C513.000000,224.687561 513.000000,234.375122 512.872681,244.882782 
	C512.527161,247.008118 512.371826,248.327515 512.081360,249.616455 
	C507.502930,269.930817 497.831787,287.122284 482.090515,301.099182 
	C469.172577,312.569214 454.496674,320.295197 437.664368,323.097687 
	C416.923828,326.550873 395.891510,327.779968 374.929016,329.466248 
	C368.066437,330.018250 361.058289,330.027649 354.341370,331.960785 
	C355.935730,344.666229 355.935730,344.666199 367.978485,344.661865 
	C369.144867,344.661469 370.311218,344.658112 371.477600,344.662567 
	C381.207031,344.699829 388.983246,350.048920 392.216339,358.926544 
	C395.413208,367.704651 392.517792,377.395477 385.528442,383.784698 
	C379.472412,389.320740 371.992157,388.459717 364.892029,389.255096 
	C361.411163,389.645081 359.713562,390.409454 359.198395,394.408722 
	C357.559601,407.129883 353.506134,418.958496 343.871948,428.104156 
	C341.970673,429.908997 341.384552,431.598541 342.203705,434.230713 
	C344.071289,440.231750 345.763031,446.320160 346.299164,452.616425 
	C346.792267,458.407745 344.443665,462.098114 340.031982,462.993591 
	C336.195923,463.772217 331.891907,460.367706 330.544006,455.297607 
	C329.605865,451.768768 328.855560,448.188110 328.089844,444.615936 
	C327.507141,441.897339 326.161407,440.915863 323.475647,442.203003 
	C317.605896,445.016052 311.433960,447.042328 305.242096,448.990448 
	C302.581543,449.827545 301.987122,451.499420 302.671661,453.990356 
	C304.358612,460.129028 304.694489,466.383942 304.842163,472.743011 
	C305.072723,482.673309 315.325409,489.160706 323.565063,484.348511 
	C328.719696,481.338043 333.432220,477.596588 339.232391,475.819550 
	C339.287689,476.842529 339.305084,477.920349 340.158875,478.925812 
	C345.514221,485.232147 343.386566,489.915314 338.737152,494.106354 
	C329.272186,502.638153 318.241760,504.555054 306.330383,499.992950 
	C295.763611,495.945770 288.606873,485.104736 288.699066,473.471008 
	C288.738861,468.448425 287.867157,463.597931 287.031311,458.693909 
	C286.422821,455.123779 284.373627,453.360474 281.204041,454.474731 
	C276.617889,456.086975 270.044373,452.387329 267.471008,459.437744 
	C267.415161,459.590729 267.432129,459.768646 267.397217,459.931122 
	C262.525818,482.600433 253.647003,502.521881 231.000000,513.000000 
	C226.975449,513.000000 222.950912,513.000000 218.463181,513.000000 
M259.268768,122.376663 
	C246.610641,122.522797 234.081406,124.368965 221.480972,125.223030 
	C208.902954,126.075577 196.613052,128.018875 185.357544,133.892624 
	C156.304825,149.053940 139.973450,172.863022 138.364807,205.823456 
	C137.495163,223.642075 140.713837,241.302963 142.199707,259.026855 
	C143.645355,276.271027 150.381012,291.176270 162.341965,303.609589 
	C181.621353,323.650391 205.417587,328.927673 232.310120,325.628693 
	C253.921387,322.977570 275.689240,321.597809 297.390625,319.688019 
	C313.793060,318.244537 330.203125,316.887634 346.604553,315.432953 
	C367.642853,313.567017 388.646393,311.165497 409.718506,309.859680 
	C437.476227,308.139526 459.545197,285.374939 459.835693,257.471954 
	C459.948761,246.610931 458.220276,235.908829 457.735443,225.119186 
	C456.726440,202.664429 440.778870,182.439056 419.181519,176.182053 
	C406.427277,172.486969 393.591797,174.228271 380.993347,175.710999 
	C355.140991,178.753586 334.184021,170.735825 317.519684,150.934021 
	C302.543365,133.138031 283.263092,123.948235 259.268768,122.376663 
M476.239716,255.523148 
	C476.314758,268.292725 472.923492,280.204376 466.433868,292.195557 
	C488.961182,276.213074 498.932495,248.953110 497.423370,225.805984 
	C496.579803,212.867386 494.882751,199.986771 493.860718,187.057053 
	C491.204193,153.448792 479.510956,123.480904 457.077393,98.242874 
	C421.569305,58.295776 376.705841,41.830154 323.726044,46.621418 
	C302.019928,48.584427 280.299561,50.389545 258.591156,52.328289 
	C245.669144,53.482338 232.658798,54.125763 219.943710,56.818310 
	C187.168427,63.758808 159.378967,79.463921 137.055466,104.635834 
	C112.176933,132.688797 99.463737,165.588272 98.457771,202.894974 
	C97.981758,220.548386 100.797012,238.074005 102.248756,255.649673 
	C104.781204,286.308960 119.805122,308.490112 147.263245,322.179932 
	C152.665878,324.873535 158.380554,327.066223 164.786713,327.639557 
	C164.307404,325.431488 162.739410,324.964142 161.615219,324.073639 
	C143.253143,309.528870 131.607513,290.957977 127.474274,267.747437 
	C125.602173,257.234589 125.118805,246.593857 124.126945,236.006943 
	C122.777878,221.607224 121.583694,207.204102 123.636597,192.695007 
	C129.466232,151.493301 167.160614,114.910355 208.584778,110.690018 
	C220.497650,109.476318 232.460480,108.729507 244.357025,107.384789 
	C258.639435,105.770386 272.577423,106.917084 286.254669,111.333412 
	C305.249329,117.466728 320.092438,129.275909 333.006317,144.239868 
	C344.528748,157.591446 359.679932,161.949020 377.132721,160.249908 
	C388.342682,159.158569 399.529510,157.501450 410.950073,158.526901 
	C439.358551,161.077728 464.833862,182.656815 471.334076,210.504288 
	C474.713287,224.981293 474.706787,239.867996 476.239716,255.523148 
M315.670441,334.320404 
	C308.050568,334.983154 300.430664,335.645142 292.810852,336.308746 
	C276.079620,337.765930 259.355774,339.314728 242.615417,340.658447 
	C222.066879,342.307831 201.519287,344.067078 180.938049,345.142944 
	C175.719498,345.415710 174.029037,347.265594 173.272644,351.857666 
	C170.260834,370.142242 172.735199,387.988037 177.511688,405.604370 
	C181.978333,422.077972 192.510941,432.658417 209.192749,436.951935 
	C217.423813,439.070435 225.713181,440.541687 234.250519,440.713074 
	C245.248260,440.933899 256.229034,440.746704 267.165070,439.630463 
	C283.580536,437.954926 299.816803,435.351196 315.096222,428.675995 
	C329.596588,422.341095 339.446442,411.980499 342.495087,396.082489 
	C344.548248,385.375610 343.927948,374.535645 343.325653,363.734253 
	C342.823425,354.727509 341.398346,345.902527 338.008118,337.450470 
	C336.676514,334.130676 335.112701,332.240082 330.990723,332.991150 
	C326.269501,333.851410 321.399017,333.892487 315.670441,334.320404 
M106.912888,427.526611 
	C128.906128,432.706055 151.126434,435.480530 175.133362,434.586823 
	C164.069626,421.245697 160.715164,406.168701 157.734558,390.594635 
	C150.847885,393.919342 144.873535,397.173828 138.620865,399.753662 
	C118.968048,407.862335 98.430077,411.226318 77.199715,410.574890 
	C74.985466,410.506927 72.561600,410.293701 71.001755,412.471771 
	C71.339088,413.786102 72.131386,414.341461 73.035545,414.815338 
	C83.555862,420.329498 94.706161,424.169769 106.912888,427.526611 
M222.866425,496.497070 
	C226.717499,496.720947 230.325302,495.629089 232.969299,492.997986 
	C241.905731,484.105103 247.640839,473.340149 250.528000,461.079651 
	C251.070526,458.775787 250.346039,457.150238 247.592117,457.056519 
	C240.945663,456.830444 234.298340,456.606628 227.656693,456.275085 
	C225.037384,456.144348 223.715561,457.408905 222.881165,459.715759 
	C221.051880,464.773285 218.149734,469.174103 214.809204,473.397064 
	C207.388443,482.778015 210.636475,492.677704 222.866425,496.497070 
M372.311310,361.040802 
	C368.850006,359.748322 365.439667,360.788361 362.037445,361.324768 
	C357.845276,361.985657 359.593658,365.348572 359.418030,367.673401 
	C359.241333,370.012909 359.423615,372.591492 362.721344,372.687164 
	C365.522125,372.768494 368.371002,372.824280 371.125397,372.407501 
	C373.834625,371.997528 376.177582,370.603912 376.680115,367.520569 
	C377.170502,364.511505 375.933197,362.388092 372.311310,361.040802 
z"/>
<path fill="#000000" opacity="1.000000" stroke="none" 
	d="
M22.453026,346.423676 
	C13.984773,335.888397 18.351858,325.351746 28.176971,322.023926 
	C34.540218,319.868652 36.776665,314.865692 39.292171,309.640839 
	C44.376514,299.080383 55.778908,296.855530 63.419048,305.730713 
	C68.438629,311.561737 74.495590,312.609436 81.214775,313.693665 
	C91.606537,315.370514 96.606331,324.974121 91.706406,334.163971 
	C88.448288,340.274628 87.433533,345.915405 88.927055,352.987457 
	C91.222183,363.855194 85.050964,372.955353 68.969231,370.032654 
	C63.858074,369.103729 60.048302,370.153625 55.944183,372.802399 
	C50.173748,376.526611 44.102673,377.600677 37.832329,373.486938 
	C34.343422,371.198029 32.312141,367.945465 32.075108,364.060791 
	C31.625811,356.697449 29.259045,350.638550 22.453026,346.423676 
M51.776390,356.073853 
	C57.736057,351.808197 64.643852,352.734406 72.284424,353.232544 
	C69.530998,344.550262 70.848412,337.059143 75.448341,329.825989 
	C70.905731,328.713989 66.812477,328.338409 63.327404,326.682739 
	C59.838017,325.024994 56.956146,322.088440 53.075119,319.159302 
	C50.205635,327.573151 44.591835,333.085083 35.470871,336.424316 
	C43.012718,341.722992 46.811920,347.674683 47.421650,355.508667 
	C47.657314,358.536530 49.697433,356.867859 51.776390,356.073853 
z"/>
<path fill="#000000" opacity="1.000000" stroke="none" 
	d="
M128.253571,62.739304 
	C125.288605,67.358200 121.102638,70.782486 120.274170,76.227280 
	C120.182091,76.832420 119.750481,77.677940 119.255295,77.886101 
	C111.261406,81.246338 109.710480,89.925308 104.563232,95.634628 
	C100.119713,100.563354 93.686661,100.022430 90.375595,93.240334 
	C84.827942,81.876991 80.274834,70.225594 88.460876,57.829594 
	C90.996971,53.989212 92.693176,49.593655 95.153183,45.613369 
	C100.994766,36.161720 112.120865,33.400185 121.531464,42.329601 
	C127.997162,48.464699 130.217010,54.278667 128.253571,62.739304 
z"/>
<path fill="#000000" opacity="1.000000" stroke="none" 
	d="
M436.181366,402.652283 
	C443.516144,401.862061 448.397705,405.042145 450.900177,411.097595 
	C453.405792,417.160583 458.341064,419.393188 463.814697,421.452850 
	C475.378845,425.804199 478.300385,437.600922 469.450439,446.313721 
	C464.723145,450.967743 463.029144,455.769226 463.228760,462.194855 
	C463.565369,473.029663 453.965759,479.712250 443.791382,475.544830 
	C437.271332,472.874146 431.493286,472.099396 424.393585,474.045410 
	C411.763031,477.507507 403.102325,467.920319 406.047028,454.462311 
	C406.854919,450.770050 406.162964,448.077026 404.140411,445.227203 
	C401.273590,441.187958 398.317596,437.257568 398.587494,431.761902 
	C398.907990,425.235565 401.412018,421.167114 407.502167,418.905792 
	C409.667908,418.101624 411.899048,417.368927 414.164703,416.962097 
	C417.986023,416.275940 420.566315,414.191711 423.107605,411.273865 
	C426.476746,407.405518 429.396118,402.363464 436.181366,402.652283 
M439.867462,456.300629 
	C442.002380,456.987976 443.985748,458.527008 446.451447,457.564728 
	C448.400635,454.038483 446.878174,449.804993 448.871918,446.434540 
	C450.861298,443.071472 453.110321,439.862000 455.682587,435.914459 
	C446.943695,433.788086 441.269623,428.342743 437.043121,419.857452 
	C432.471680,428.359833 425.555786,431.906464 417.425232,433.501068 
	C417.841553,434.938995 417.898407,435.626251 418.216187,436.157349 
	C421.505615,441.655334 424.042664,447.181885 422.593842,453.999176 
	C421.845795,457.519073 424.937653,456.921204 426.980255,456.376129 
	C431.031311,455.295135 435.025818,454.252350 439.867462,456.300629 
z"/>
<path fill="#000000" opacity="1.000000" stroke="none" 
	d="
M393.168823,241.648468 
	C407.782990,241.652390 417.550110,249.571487 420.039215,263.055298 
	C421.994965,273.649841 415.069824,285.546234 404.209137,289.669525 
	C394.488129,293.360138 385.438934,291.872040 377.897095,284.569244 
	C370.466553,277.374207 367.819519,268.457214 371.346710,258.598022 
	C374.865692,248.762039 381.935486,242.695053 393.168823,241.648468 
M387.154358,271.327972 
	C391.187592,275.821808 395.112335,276.879089 399.322876,274.605988 
	C403.177338,272.525085 405.200714,268.029999 404.012787,264.187042 
	C402.281403,258.586182 397.359222,255.953476 391.970306,257.745972 
	C386.673737,259.507751 384.748627,264.304260 387.154358,271.327972 
z"/>
<path fill="#000000" opacity="1.000000" stroke="none" 
	d="
M213.557343,162.839905 
	C214.277359,165.870270 214.554443,168.539719 214.086365,171.175766 
	C213.354965,175.294617 210.626801,177.798248 206.593491,177.976028 
	C202.459732,178.158249 199.784302,175.631683 198.839020,171.589172 
	C198.349197,169.494293 198.097122,167.332520 197.884216,165.186432 
	C197.353043,159.832413 199.994171,155.625000 204.297272,154.821548 
	C208.753525,153.989517 212.045898,156.716949 213.557343,162.839905 
z"/>
<path fill="#000000" opacity="1.000000" stroke="none" 
	d="
M274.331268,149.274658 
	C279.909393,152.821045 282.391449,162.678223 279.394897,168.049850 
	C276.580902,173.094208 269.518311,173.815399 266.626373,168.945541 
	C263.757416,164.114349 263.074097,158.548187 265.290039,153.200531 
	C266.806396,149.541199 270.049896,148.324753 274.331268,149.274658 
z"/>
<path fill="#000000" opacity="1.000000" stroke="none" 
	d="
M405.370361,202.759949 
	C402.350403,199.973419 401.984650,197.062836 404.019836,194.026840 
	C405.666840,191.569901 408.129364,190.763641 410.993103,191.543442 
	C414.578186,192.519699 416.709930,196.456726 415.486786,199.698517 
	C414.016602,203.595078 410.317719,204.842407 405.370361,202.759949 
z"/>
<path fill="#000000" opacity="1.000000" stroke="none" 
	d="
M372.071411,195.502625 
	C376.921539,200.211563 376.263184,205.946548 371.037109,207.271561 
	C368.301544,207.965179 365.754486,207.545105 364.009308,205.015915 
	C362.476685,202.794769 362.160675,200.388000 363.649078,198.063843 
	C365.565125,195.071838 368.257568,193.960327 372.071411,195.502625 
z"/>
<path fill="#000000" opacity="1.000000" stroke="none" 
	d="
M275.937988,368.180908 
	C278.550537,362.293182 281.704254,357.243134 286.224091,353.124542 
	C294.652863,345.443909 305.285736,344.731720 314.597168,351.247559 
	C328.810394,361.193604 336.936371,380.282623 333.267944,395.107666 
	C329.323212,411.049530 312.719696,421.426239 296.775146,417.914642 
	C280.549835,414.341217 269.536621,398.412445 272.147003,382.499603 
	C272.931885,377.714844 274.045746,373.053772 275.937988,368.180908 
M288.133179,383.739258 
	C288.100769,385.070404 287.998749,386.404083 288.047363,387.732269 
	C288.346588,395.909790 294.063293,401.992065 302.009979,402.630768 
	C309.512329,403.233795 316.255127,398.079895 317.993774,390.413483 
	C319.944824,381.810394 312.318024,366.904388 304.287842,363.507690 
	C301.040863,362.134277 298.424652,363.119965 296.179871,365.483459 
	C291.553741,370.354309 289.012238,376.208435 288.133179,383.739258 
z"/>
<path fill="#000000" opacity="1.000000" stroke="none" 
	d="
M249.491470,396.459045 
	C245.183289,400.237793 240.121201,400.791016 235.183716,401.109009 
	C227.596664,401.597595 220.563690,403.575806 213.611282,406.632324 
	C201.399155,412.001190 188.647934,406.671448 184.026154,394.739929 
	C180.244354,384.976837 184.033173,373.671021 193.376007,368.405487 
	C204.523621,362.122833 216.598328,358.493835 229.407394,357.774658 
	C233.187759,357.562439 236.961670,356.749115 240.828979,357.564331 
	C246.300201,358.717621 249.590332,362.066711 249.065521,366.455841 
	C248.549713,370.769714 245.069901,373.449432 239.607697,373.295746 
	C226.907272,372.938446 214.803192,375.158051 203.422012,380.982697 
	C200.026428,382.720520 197.106369,384.852203 199.095459,389.044312 
	C201.003784,393.066223 204.604691,393.757812 208.383057,391.652008 
	C219.195786,385.625702 231.551804,386.173157 243.113708,383.361786 
	C246.246216,382.600128 249.048080,384.226471 250.735855,387.019958 
	C252.671829,390.224304 252.319916,393.369110 249.491470,396.459045 
z"/>
</svg>